<svg xmlns="http://www.w3.org/2000/svg" xmlns:xlink="http://www.w3.org/1999/xlink" x="0" y="0" version="1.1" viewBox="0 0 500 500" style="enable-background:new 0 0 500 500" xml:space="preserve"><style type="text/css">.st1{fill:none;stroke:#000;stroke-width:8.7229;stroke-miterlimit:10}.st5{fill:url(#SVGID_1_)}.st5,.st6,.st7{opacity:.6}.st6{fill:url(#SVGID_2_)}.st7{fill:url(#SVGID_3_)}.st9{fill:#ed1c24}.st10{fill:#fff}.st16{stroke-width:7.9363}.st16,.st18,.st19{fill:none;stroke:#000;stroke-miterlimit:10}.st18{stroke-width:9.0983}.st19{stroke-width:6.8218}</style><g id="Layer_2"><g><g><g><polygon points="419.1 388.5 121.6 388.5 121.6 91 419.1 91 419.1 124" class="st9"/><polygon points="419.1 388.5 121.6 388.5 121.6 91 419.1 91 419.1 124" class="st1"/></g><line x1="119" x2="418.3" y1="130" y2="130" class="st16"/><circle cx="141.7" cy="111.3" r="6.3"/></g><rect width="277.6" height="236.7" x="131.6" y="140.9" class="st10" transform="matrix(1 -2.694796e-03 2.694796e-03 1 -0.6978 0.7295)"/><line x1="239.2" x2="388.7" y1="179.9" y2="180.8" class="st18"/><line x1="154.2" x2="360.5" y1="232.2" y2="232.2" class="st18"/><line x1="154.2" x2="370.5" y1="283.7" y2="283.7" class="st18"/><line x1="153.3" x2="390.5" y1="333.3" y2="333.3" class="st18"/><g><polyline points="168.7 163.6 155.8 178.4 168.1 192.6" class="st19"/><polyline points="205.4 192.6 218.4 177.8 206 163.6" class="st19"/><line x1="193.9" x2="179.4" y1="162" y2="196.7" class="st19"/></g><g><linearGradient id="SVGID_1_" x1="-4687.083" x2="-4595.703" y1="2445.603" y2="2445.603" gradientTransform="matrix(-0.8549 0.5188 -0.5188 -0.8549 -2330.6692 4699.0596)" gradientUnits="userSpaceOnUse"><stop offset="0" style="stop-color:#fff"/><stop offset=".132" style="stop-color:#d8d8d8"/><stop offset=".453" style="stop-color:#7c7c7c"/><stop offset=".715" style="stop-color:#393939"/><stop offset=".903" style="stop-color:#101010"/><stop offset="1" style="stop-color:#000"/></linearGradient><polygon points="433.4 219.3 335 233.4 375.9 137.5" class="st5"/><ellipse cx="426.2" cy="163.4" rx="56.3" ry="56.3" transform="matrix(1.143895e-02 -0.9999 0.9999 1.143895e-02 257.9182 587.6883)"/></g><linearGradient id="SVGID_2_" x1="-877.184" x2="-750.101" y1="-458.166" y2="-458.166" gradientTransform="matrix(0.9346 0.3558 -0.3558 0.9346 765.495 981.1288)" gradientUnits="userSpaceOnUse"><stop offset="0" style="stop-color:#fff"/><stop offset=".132" style="stop-color:#d8d8d8"/><stop offset=".453" style="stop-color:#7c7c7c"/><stop offset=".715" style="stop-color:#393939"/><stop offset=".903" style="stop-color:#101010"/><stop offset="1" style="stop-color:#000"/></linearGradient><polygon points="132.4 178.7 228 284.8 97.2 307.6" class="st6"/><ellipse cx="85.8" cy="235.2" rx="73.3" ry="73.3" transform="matrix(0.8815 -0.4722 0.4722 0.8815 -100.8903 68.4117)"/><linearGradient id="SVGID_3_" x1="-3020.081" x2="-2890.524" y1="4479.675" y2="4479.675" gradientTransform="matrix(-0.9262 -0.3771 0.3771 -0.9262 -4088.7969 3349.3264)" gradientUnits="userSpaceOnUse"><stop offset="0" style="stop-color:#fff"/><stop offset=".132" style="stop-color:#d8d8d8"/><stop offset=".453" style="stop-color:#7c7c7c"/><stop offset=".715" style="stop-color:#393939"/><stop offset=".903" style="stop-color:#101010"/><stop offset="1" style="stop-color:#000"/></linearGradient><polygon points="372.4 401.6 260.5 332.8 369.4 255.3" class="st7"/><ellipse cx="406.5" cy="328.1" rx="80.9" ry="80.9" transform="matrix(0.8585 -0.5128 0.5128 0.8585 -110.7187 254.8945)"/></g></g></svg>