<svg xmlns="http://www.w3.org/2000/svg" xmlns:xlink="http://www.w3.org/1999/xlink" x="0" y="0" version="1.1" viewBox="0 0 500 500" style="enable-background:new 0 0 500 500" xml:space="preserve"><style type="text/css">.st5{fill:url(#SVGID_1_)}.st5,.st6,.st7{opacity:.6}.st6{fill:url(#SVGID_2_)}.st7{fill:url(#SVGID_3_)}.st10{fill:#fff}.st16{fill:none;stroke:#000;stroke-width:7.9363;stroke-miterlimit:10}.st17{opacity:.4;fill:#a7a9ac}.st18,.st19{fill:none;stroke:#000;stroke-width:9.0983;stroke-miterlimit:10}.st19{stroke-width:6.8218}</style><g id="Layer_2"><g><g><g><polygon points="424.7 388.5 127.2 388.5 127.2 91 424.7 91 424.7 124" class="st10"/><polygon points="424.7 388.5 127.2 388.5 127.2 91 424.7 91 424.7 124" class="st16"/></g><line x1="124.6" x2="423.9" y1="130" y2="130" class="st16"/><circle cx="147.3" cy="111.3" r="6.3"/></g><rect width="277.6" height="236.7" x="137.1" y="140.9" class="st17" transform="matrix(1 -2.694796e-03 2.694796e-03 1 -0.6978 0.7445)"/><line x1="244.8" x2="394.3" y1="179.9" y2="180.8" class="st18"/><line x1="159.8" x2="366.1" y1="232.2" y2="232.2" class="st18"/><line x1="159.8" x2="376.1" y1="283.7" y2="283.7" class="st18"/><line x1="158.8" x2="396.1" y1="333.3" y2="333.3" class="st18"/><g><polyline points="174.3 163.6 161.3 178.4 173.7 192.6" class="st19"/><polyline points="211 192.6 224 177.8 211.6 163.6" class="st19"/><line x1="199.5" x2="185" y1="162" y2="196.7" class="st19"/></g><g><linearGradient id="SVGID_1_" x1="-3522.802" x2="-3431.422" y1="2780.302" y2="2780.302" gradientTransform="matrix(-0.8549 0.5188 -0.5188 -0.8549 -1156.1044 4381.1567)" gradientUnits="userSpaceOnUse"><stop offset="0" style="stop-color:#fff"/><stop offset=".132" style="stop-color:#d8d8d8"/><stop offset=".453" style="stop-color:#7c7c7c"/><stop offset=".715" style="stop-color:#393939"/><stop offset=".903" style="stop-color:#101010"/><stop offset="1" style="stop-color:#000"/></linearGradient><polygon points="439 219.3 340.6 233.4 381.5 137.5" class="st5"/><ellipse cx="431.8" cy="163.4" rx="56.3" ry="56.3" transform="matrix(1.143895e-02 -0.9999 0.9999 1.143895e-02 263.4424 593.2761)"/></g><linearGradient id="SVGID_2_" x1="-1802.246" x2="-1672.689" y1="4252.057" y2="4252.057" gradientTransform="matrix(-0.9262 -0.3771 0.3771 -0.9262 -2873.9656 3597.8022)" gradientUnits="userSpaceOnUse"><stop offset="0" style="stop-color:#fff"/><stop offset=".132" style="stop-color:#d8d8d8"/><stop offset=".453" style="stop-color:#7c7c7c"/><stop offset=".715" style="stop-color:#393939"/><stop offset=".903" style="stop-color:#101010"/><stop offset="1" style="stop-color:#000"/></linearGradient><polygon points="373.5 401.6 261.6 332.8 370.5 255.3" class="st6"/><ellipse cx="407.6" cy="328.1" rx="80.9" ry="80.9" transform="matrix(0.8585 -0.5128 0.5128 0.8585 -110.5661 255.4475)"/><linearGradient id="SVGID_3_" x1="-838.736" x2="-711.653" y1="-232.649" y2="-232.649" gradientTransform="matrix(0.9346 0.3558 -0.3558 0.9346 808.7299 756.6901)" gradientUnits="userSpaceOnUse"><stop offset="0" style="stop-color:#fff"/><stop offset=".132" style="stop-color:#d8d8d8"/><stop offset=".453" style="stop-color:#7c7c7c"/><stop offset=".715" style="stop-color:#393939"/><stop offset=".903" style="stop-color:#101010"/><stop offset="1" style="stop-color:#000"/></linearGradient><polygon points="131.3 178.7 226.9 284.8 96.1 307.6" class="st7"/><ellipse cx="84.8" cy="235.2" rx="73.3" ry="73.3" transform="matrix(0.8815 -0.4722 0.4722 0.8815 -101.0181 67.9025)"/></g></g></svg>