<svg xmlns="http://www.w3.org/2000/svg" xmlns:xlink="http://www.w3.org/1999/xlink" x="0" y="0" version="1.1" viewBox="0 0 500 500" style="enable-background:new 0 0 500 500" xml:space="preserve"><style type="text/css">.st5{fill:url(#SVGID_1_)}.st5,.st6,.st7{opacity:.6}.st6{fill:url(#SVGID_2_)}.st7{fill:url(#SVGID_3_)}.st9{fill:#ed1c24}.st10{fill:#fff}.st26{stroke-width:7.4383}.st26,.st27,.st28,.st32{fill:none;stroke:#000;stroke-miterlimit:10}.st27{stroke-width:8.5273}.st28{stroke-width:6.3937}.st32{stroke-width:8.1755}</style><g id="Layer_2"><g><g><g><polygon points="407.5 346.3 128.6 346.3 128.6 67.4 407.5 67.4 407.5 98.4" class="st9"/><polygon points="407.5 346.3 128.6 346.3 128.6 67.4 407.5 67.4 407.5 98.4" class="st32"/></g><line x1="126.2" x2="406.7" y1="103.9" y2="103.9" class="st26"/><circle cx="147.5" cy="86.4" r="5.9"/></g><rect width="260.2" height="221.9" x="138" y="114.2" class="st10" transform="matrix(1 -2.694796e-03 2.694796e-03 1 -0.6058 0.7232)"/><line x1="238.9" x2="379" y1="150.7" y2="151.6" class="st27"/><line x1="159.2" x2="352.6" y1="199.8" y2="199.8" class="st27"/><line x1="159.2" x2="362" y1="248" y2="248" class="st27"/><line x1="158.3" x2="380.7" y1="294.5" y2="294.5" class="st27"/><g><polyline points="172.8 135.5 160.7 149.3 172.3 162.6" class="st28"/><polyline points="207.2 162.6 219.4 148.8 207.8 135.5" class="st28"/><line x1="196.4" x2="182.9" y1="134" y2="166.5" class="st28"/></g><g><linearGradient id="SVGID_1_" x1="-9003.104" x2="-8917.459" y1="1259.816" y2="1259.816" gradientTransform="matrix(-0.8549 0.5188 -0.5188 -0.8549 -6646.4741 5895.5537)" gradientUnits="userSpaceOnUse"><stop offset="0" style="stop-color:#fff"/><stop offset=".132" style="stop-color:#d8d8d8"/><stop offset=".453" style="stop-color:#7c7c7c"/><stop offset=".715" style="stop-color:#393939"/><stop offset=".903" style="stop-color:#101010"/><stop offset="1" style="stop-color:#000"/></linearGradient><polygon points="420.9 187.7 328.7 200.9 367 111" class="st5"/><ellipse cx="414.1" cy="135.3" rx="52.8" ry="52.8" transform="matrix(1.143896e-02 -0.9999 0.9999 1.143896e-02 274.1257 547.828)"/></g><linearGradient id="SVGID_2_" x1="-1031.857" x2="-912.748" y1="-1319.505" y2="-1319.505" gradientTransform="matrix(0.9346 0.3558 -0.3558 0.9346 611.4252 1808.1456)" gradientUnits="userSpaceOnUse"><stop offset="0" style="stop-color:#fff"/><stop offset=".132" style="stop-color:#d8d8d8"/><stop offset=".453" style="stop-color:#7c7c7c"/><stop offset=".715" style="stop-color:#393939"/><stop offset=".903" style="stop-color:#101010"/><stop offset="1" style="stop-color:#000"/></linearGradient><polygon points="138.8 149.6 228.4 249.1 105.8 270.4" class="st6"/><ellipse cx="95.1" cy="202.6" rx="68.7" ry="68.7" transform="matrix(0.8815 -0.4722 0.4722 0.8815 -84.3777 68.9364)"/><linearGradient id="SVGID_3_" x1="-7476.557" x2="-7355.129" y1="5378.774" y2="5378.774" gradientTransform="matrix(-0.9262 -0.3771 0.3771 -0.9262 -8565.5596 2462.1797)" gradientUnits="userSpaceOnUse"><stop offset="0" style="stop-color:#fff"/><stop offset=".132" style="stop-color:#d8d8d8"/><stop offset=".453" style="stop-color:#7c7c7c"/><stop offset=".715" style="stop-color:#393939"/><stop offset=".903" style="stop-color:#101010"/><stop offset="1" style="stop-color:#000"/></linearGradient><polygon points="363.7 358.6 258.9 294 360.9 221.4" class="st7"/><ellipse cx="395.7" cy="289.6" rx="75.8" ry="75.8" transform="matrix(0.8585 -0.5128 0.5128 0.8585 -92.5266 243.9027)"/><g><path d="M126,388h12.4c8.7,0,15.2,3,15.2,12.1c0,8.8-6.5,12.8-15,12.8H133v14.5h-7V388z M138.1,407.3 c5.9,0,8.7-2.3,8.7-7.2c0-4.9-3.1-6.5-8.9-6.5H133v13.7H138.1z" class="st9"/><path d="M157.2,412.6c0-9.8,6.7-15.5,14.1-15.5s14.1,5.7,14.1,15.5c0,9.8-6.7,15.5-14.1,15.5 S157.2,422.4,157.2,412.6z M178.2,412.6c0-5.9-2.6-9.9-6.9-9.9c-4.3,0-6.9,3.9-6.9,9.9c0,5.9,2.6,9.8,6.9,9.8 C175.6,422.4,178.2,418.5,178.2,412.6z" class="st9"/><path d="M191.8,419.7v-34.9h6.9v35.2c0,1.7,0.8,2.3,1.5,2.3c0.3,0,0.6,0,1.1-0.1l0.9,5.2c-0.8,0.3-2,0.6-3.7,0.6 C193.6,428,191.8,424.9,191.8,419.7z" class="st9"/><path d="M206.2,438.8l1.3-5.4c0.6,0.2,1.4,0.4,2.1,0.4c3.1,0,4.9-2.1,5.9-5.1l0.6-1.9l-11.6-29.2h7l5.1,14.5 c0.9,2.6,1.7,5.5,2.6,8.3h0.2c0.7-2.7,1.5-5.7,2.3-8.3l4.4-14.5h6.7l-10.7,30.9c-2.5,6.7-5.6,10.8-12,10.8 C208.4,439.4,207.3,439.2,206.2,438.8z" class="st9"/><path d="M247.9,390.1h-12.6v-2.4h28v2.4h-12.6v37.3h-2.8V390.1z"/><path d="M267.6,398.4h2.2l0.3,5.4h0.1c2-3.5,4.8-6.1,8.2-6.1c1.1,0,1.9,0.1,2.9,0.6l-0.6,2.4c-1-0.3-1.5-0.5-2.6-0.5 c-2.6,0-5.7,2-7.9,7.4v19.6h-2.7V398.4z"/><path d="M283.3,420.1c0-6.4,5.8-9.5,18.6-10.9c0.1-4.4-1.1-9.2-6.8-9.2c-3.9,0-7.3,1.9-9.2,3.4l-1.2-2c2-1.4,6.1-3.8,10.7-3.8 c6.8,0,9.2,5,9.2,11.2v18.5h-2.2l-0.3-3.8H302c-2.9,2.4-6.5,4.5-10.2,4.5C287.1,428,283.3,425.5,283.3,420.1z M302,421.1v-9.8 c-11.9,1.4-15.9,4.1-15.9,8.7c0,4.1,2.8,5.7,6.1,5.7C295.5,425.7,298.4,424.1,302,421.1z"/><path d="M312.5,412.9c0-9.7,6.2-15.2,13.2-15.2c3.9,0,6.5,1.7,8.5,3.6l-1.6,1.9c-1.9-1.7-4-3.1-6.8-3.1 c-5.9,0-10.5,5.3-10.5,12.9c0,7.6,4.2,12.8,10.4,12.8c3.1,0,5.8-1.5,7.7-3.3l1.4,1.9c-2.5,2.2-5.6,3.8-9.2,3.8 C318.1,428,312.5,422.5,312.5,412.9z"/><path d="M341.9,384h2.6v31.9h0.1l14.3-17.5h3.1l-9.4,11.4l11,17.5h-3l-9.6-15.5l-6.5,7.6v7.9h-2.6V384z"/><path d="M366.7,412.9c0-9.4,6.1-15.2,12.6-15.2c6.8,0,11.1,4.9,11.1,13.4c0,0.7,0,1.4-0.2,2.2h-20.8c0.1,7.3,4.4,12.5,10.9,12.5 c3.1,0,5.6-1,7.8-2.6l1.1,2c-2.3,1.4-4.9,2.8-9.1,2.8C372.7,428,366.7,422.4,366.7,412.9z M387.9,411c0-7.4-3.3-11-8.5-11 c-4.9,0-9.3,4.1-9.9,11H387.9z"/><path d="M398.2,398.4h2.2l0.3,5.4h0.1c2-3.5,4.8-6.1,8.2-6.1c1.1,0,1.9,0.1,2.9,0.6l-0.6,2.4c-1-0.3-1.5-0.5-2.6-0.5 c-2.6,0-5.7,2-7.9,7.4v19.6h-2.7V398.4z"/></g></g></g></svg>